<svg width="23" height="22" viewBox="0 0 23 22" fill="none" xmlns="http://www.w3.org/2000/svg">
<path d="M8.29036 17.4167H7.83203C4.16536 17.4167 2.33203 16.5 2.33203 11.9167V7.33337C2.33203 3.66671 4.16536 1.83337 7.83203 1.83337H15.1654C18.832 1.83337 20.6654 3.66671 20.6654 7.33337V11.9167C20.6654 15.5834 18.832 17.4167 15.1654 17.4167H14.707C14.4229 17.4167 14.1479 17.5542 13.9737 17.7834L12.5987 19.6167C11.9937 20.4234 11.0037 20.4234 10.3987 19.6167L9.0237 17.7834C8.87703 17.5817 8.53786 17.4167 8.29036 17.4167Z" stroke="black" stroke-opacity="0.33" stroke-width="1.2" stroke-miterlimit="10" stroke-linecap="round" stroke-linejoin="round"/>
<path d="M6.91797 7.33337H16.0846" stroke="black" stroke-opacity="0.33" stroke-width="1.2" stroke-linecap="round" stroke-linejoin="round"/>
<path d="M6.91797 11.9166H12.418" stroke="black" stroke-opacity="0.33" stroke-width="1.2" stroke-linecap="round" stroke-linejoin="round"/>
</svg>
